<?xml version="1.0" encoding="UTF-8"?>
<!DOCTYPE svg PUBLIC "-//W3C//DTD SVG 1.1//EN" "http://www.w3.org/Graphics/SVG/1.1/DTD/svg11.dtd">
<!-- Creator: CorelDRAW -->
<svg xmlns="http://www.w3.org/2000/svg" xml:space="preserve" width="254.998mm" height="30mm" version="1.1" style="shape-rendering:geometricPrecision; text-rendering:geometricPrecision; image-rendering:optimizeQuality; fill-rule:evenodd; clip-rule:evenodd"
viewBox="0 0 25499.84 3000"
 xmlns:xlink="http://www.w3.org/1999/xlink"
 xmlns:xodm="http://www.corel.com/coreldraw/odm/2003">
 <defs>
  <style type="text/css">
   <![CDATA[
    .fil0 {fill:black;fill-rule:nonzero}
   ]]>
  </style>
 </defs>
 <g id="Слой_x0020_1">
  <metadata id="CorelCorpID_0Corel-Layer"/>
  <path class="fil0" d="M1784.26 50.9c24.5,-33.93 59.38,-50.9 104.62,-50.9 37.7,0 69.75,13.2 96.14,39.59 26.39,26.39 39.59,58.44 39.59,96.14 0,35.82 -9.43,63.15 -28.28,82l-2.83 2.83 -684.29 921.82c-32.05,43.35 -74.46,78.7 -127.25,106.03 -52.78,27.34 -109.33,41 -169.65,41 -56.56,0 -110.28,-12.25 -161.18,-36.76 -50.9,-24.5 -92.37,-58.43 -124.42,-101.79l-687.12 -918.99c-9.43,-15.08 -18.38,-30.16 -26.86,-45.24 -8.49,-15.08 -12.73,-32.05 -12.73,-50.9 0,-37.7 13.2,-69.75 39.59,-96.14 26.39,-26.39 58.44,-39.59 96.14,-39.59 47.13,0 82.95,17.91 107.45,53.73l658.85 879.4c13.19,15.08 29.69,31.57 49.48,49.48 19.79,17.91 40.06,26.87 60.8,26.87 20.73,0 41,-8.96 60.79,-26.87 19.79,-17.91 35.35,-34.4 46.66,-49.48l664.5 -882.23zm2177.3 910.51c64.09,0 116.87,-11.79 158.35,-35.35 41.47,-23.56 73.99,-52.31 97.55,-86.24 23.56,-33.94 39.59,-71.17 48.07,-111.7 8.48,-40.53 12.73,-77.76 12.73,-111.69 0,-33.93 -4.25,-71.16 -12.73,-111.69 -8.48,-40.53 -24.51,-77.76 -48.07,-111.69 -23.56,-33.94 -56.08,-62.68 -97.55,-86.25 -41.48,-23.56 -94.26,-35.34 -158.35,-35.34l-1142.38 0c-65.98,0 -119.23,11.78 -159.76,35.34 -40.53,23.57 -72.58,52.31 -96.14,86.25 -23.56,33.93 -39.59,71.16 -48.07,111.69 -8.48,40.53 -12.72,77.76 -12.72,111.69 0,33.93 4.24,71.16 12.72,111.69 8.48,40.53 24.51,77.76 48.07,111.7 23.56,33.93 55.61,62.68 96.14,86.24 40.53,23.56 93.78,35.35 159.76,35.35l1142.38 0zm579.67 -344.98c0,71.64 -11.78,143.74 -35.35,216.32 -23.56,72.57 -57.96,138.55 -103.21,197.93 -45.24,59.38 -99.91,107.93 -164,145.63 -64.1,37.7 -136.67,56.55 -217.73,56.55l-1289.41 0c-77.29,0 -146.1,-18.85 -206.42,-56.55 -60.33,-37.7 -111.7,-86.25 -154.11,-145.63 -42.42,-59.38 -74.93,-125.83 -97.56,-199.35 -22.62,-73.52 -33.93,-145.15 -33.93,-214.9 0,-69.75 11.78,-141.38 35.35,-214.9 23.56,-73.52 57.97,-139.97 103.21,-199.35 45.24,-59.38 99.91,-107.92 164,-145.63 64.1,-37.7 136.67,-56.55 217.73,-56.55l1289.42 0c75.4,0 143.73,18.85 205,56.55 61.27,37.71 113.11,86.25 155.52,145.63 42.42,59.38 74.93,125.83 97.56,199.35 22.62,73.52 33.93,145.15 33.93,214.9zm670.15 616.43c-52.78,0 -102.74,-9.9 -149.86,-29.69 -47.13,-19.79 -88.13,-46.66 -123.01,-80.59 -34.87,-33.93 -62.68,-73.52 -83.41,-118.76 -20.74,-45.24 -31.11,-94.25 -31.11,-147.04l0 -721.05c0,-37.7 13.2,-69.75 39.59,-96.14 26.39,-26.39 58.44,-39.59 96.14,-39.59 35.82,0 67.39,13.2 94.73,39.59 27.33,26.39 41,58.44 41,96.14l0 721.05c0,28.28 10.84,52.79 32.52,73.52 21.68,20.74 46.65,31.11 74.93,31.11l1696.6 0c37.7,0 69.74,13.19 96.14,39.58 26.39,26.39 39.58,58.44 39.58,96.14 0,37.71 -13.19,69.75 -39.58,96.14 -26.4,26.4 -58.44,39.59 -96.14,39.59l-1688.12 0zm2378.07 -616.43c0,33.93 4.24,71.16 12.72,111.69 8.49,40.53 24.51,77.76 48.07,111.7 23.57,33.93 55.61,62.68 96.14,86.24 40.53,23.56 93.79,35.35 159.77,35.35l1125.4 0c64.1,0 116.88,-11.79 158.35,-35.35 41.48,-23.56 73.99,-52.31 97.56,-86.24 23.56,-33.94 39.59,-71.17 48.07,-111.7 8.48,-40.53 12.72,-77.76 12.72,-111.69l0 -477.87c0,-37.71 13.2,-69.75 39.59,-96.14 26.39,-26.4 58.44,-39.59 96.14,-39.59 37.7,0 69.75,13.19 96.14,39.59 26.39,26.39 39.59,58.43 39.59,96.14l0 477.87c0,71.64 -11.78,143.74 -35.35,216.32 -23.56,72.57 -57.96,138.55 -103.21,197.93 -45.24,59.38 -99.91,107.93 -164,145.63 -64.1,37.7 -136.67,56.55 -217.73,56.55l-1289.41 0c-77.29,0 -146.1,-18.85 -206.42,-56.55 -60.33,-37.7 -111.7,-86.25 -154.11,-145.63 -42.42,-59.38 -74.93,-125.83 -97.56,-199.35 -22.62,-73.52 -33.93,-145.15 -33.93,-214.9l0 -477.87c0,-37.71 13.2,-69.75 39.59,-96.14 26.39,-26.4 58.44,-39.59 96.14,-39.59 37.7,0 69.75,13.19 96.14,39.59 26.39,26.39 39.59,58.43 39.59,96.14l0 477.87zm4699.57 480.7c0,37.71 -13.2,69.75 -39.59,96.14 -26.39,26.4 -58.44,39.59 -96.14,39.59 -37.7,0 -69.75,-13.19 -96.14,-39.59 -26.39,-26.39 -39.59,-58.43 -39.59,-96.14l0 -616.43c0,-77.29 -4.71,-115.93 -14.14,-115.93 -7.54,0 -33.93,25.45 -79.17,76.35l-622.09 706.91c-24.5,28.28 -54.66,49.49 -90.48,63.62 -35.82,14.14 -74.46,21.21 -115.93,21.21 -41.48,0 -80.12,-7.07 -115.94,-21.21 -35.82,-14.13 -65.98,-35.34 -90.48,-63.62l-622.09 -706.91c-43.36,-50.9 -69.75,-76.35 -79.17,-76.35 -9.43,0 -14.14,38.64 -14.14,115.93l0 616.43c0,37.71 -13.2,69.75 -39.59,96.14 -26.39,26.4 -58.44,39.59 -96.14,39.59 -37.7,0 -69.75,-13.19 -96.14,-39.59 -26.39,-26.39 -39.59,-58.43 -39.59,-96.14l0 -825.67c0,-75.41 21.68,-139.5 65.04,-192.28 43.36,-52.79 102.74,-79.18 178.14,-79.18 45.24,0 85.77,11.31 121.59,33.93 35.82,22.62 68.81,49.96 98.97,82.01l650.36 740.84c9.43,9.43 21.21,19.32 35.35,29.69 14.14,10.37 28.74,15.55 43.83,15.55 15.08,0 29.69,-5.18 43.82,-15.55 14.14,-10.37 25.92,-20.26 35.35,-29.69l647.53 -740.84 2.83 0c26.39,-35.82 58.44,-64.1 96.14,-84.83 37.7,-20.74 79.18,-31.11 124.42,-31.11 75.4,0 134.78,26.39 178.14,79.18 43.36,52.78 65.04,116.87 65.04,192.28l0 825.67zm282.76 -961.4c0,-37.7 13.2,-69.75 39.59,-96.14 26.39,-26.39 58.44,-39.59 96.14,-39.59l2004.81 0c37.7,0 69.75,13.2 96.14,39.59 26.39,26.39 39.59,58.44 39.59,96.14 0,37.7 -13.2,69.75 -39.59,96.14 -26.39,26.39 -58.44,39.59 -96.14,39.59l-2004.81 0c-37.7,0 -69.75,-13.2 -96.14,-39.59 -26.39,-26.39 -39.59,-58.44 -39.59,-96.14zm344.98 1097.13c-41.47,0 -82.95,-8.95 -124.42,-26.86 -41.47,-17.91 -78.23,-42.89 -110.28,-74.93 -32.05,-32.05 -58.44,-70.7 -79.17,-115.94 -20.74,-45.24 -31.11,-96.14 -31.11,-152.69l0 -254.49c0,-50.9 14.61,-84.83 43.83,-101.8 29.22,-16.96 74.93,-25.45 137.14,-25.45l1897.36 0c37.71,0 69.75,13.2 96.14,39.59 26.39,26.39 39.59,58.44 39.59,96.14 0,37.7 -13.2,69.75 -39.59,96.14 -26.39,26.39 -58.43,39.59 -96.14,39.59l-1806.87 0 0 138.55c0,18.86 8.01,35.35 24.03,49.49 16.03,14.14 37.23,21.21 63.63,21.21l1781.42 0c37.7,0 69.75,13.19 96.14,39.58 26.39,26.39 39.59,58.44 39.59,96.14 0,37.71 -13.2,69.75 -39.59,96.14 -26.39,26.4 -58.44,39.59 -96.14,39.59l-1795.56 0zm4139.69 -1097.13c0,-37.7 13.2,-69.75 39.59,-96.14 26.39,-26.39 58.43,-39.59 96.14,-39.59 37.7,0 69.75,13.2 96.14,39.59 26.39,26.39 39.58,58.44 39.58,96.14l0 822.85c0,79.17 -25.44,144.68 -76.34,196.52 -50.9,51.84 -115.94,77.76 -195.11,77.76 -26.39,0 -52.31,-3.77 -77.76,-11.31 -25.45,-7.54 -48.54,-17.91 -69.28,-31.1l-1295.07 -791.75c-35.81,-20.74 -65.5,-37.23 -89.07,-49.48 -23.56,-12.26 -42.88,-18.38 -57.97,-18.38 -28.27,0 -46.18,17.91 -53.72,53.72 -7.54,35.82 -11.31,87.66 -11.31,155.52l0 557.05c0,37.71 -13.2,69.75 -39.59,96.14 -26.39,26.4 -58.44,39.59 -96.14,39.59 -37.7,0 -69.75,-13.19 -96.14,-39.59 -26.39,-26.39 -39.59,-58.43 -39.59,-96.14l0 -822.85c0,-79.17 25.45,-144.68 76.35,-196.52 50.9,-51.84 115.93,-77.76 195.11,-77.76 26.39,0 52.31,3.77 77.76,11.31 25.45,7.54 48.54,17.91 69.28,31.11l1295.06 791.74c35.82,20.74 65.51,37.23 89.08,49.48 23.56,12.26 42.88,18.38 57.96,18.38 28.28,0 46.19,-17.9 53.73,-53.72 7.54,-35.82 11.31,-87.66 11.31,-155.52l0 -557.05zm689.95 135.73c-37.7,0 -69.75,-13.2 -96.14,-39.59 -26.39,-26.39 -39.59,-58.44 -39.59,-96.14 0,-37.7 13.2,-69.75 39.59,-96.14 26.39,-26.39 58.44,-39.59 96.14,-39.59l1869.08 0c75.41,0 139.5,26.39 192.28,79.18 52.79,52.78 79.18,116.87 79.18,192.28 0,64.09 -18.85,120.17 -56.55,168.24 -37.71,48.07 -85.78,79.65 -144.21,94.73l-1586.32 376.08c-45.24,11.31 -67.87,21.68 -67.87,31.1 0,13.2 40.53,19.8 121.59,19.8l1597.63 0c37.7,0 69.75,13.19 96.14,39.58 26.39,26.39 39.59,58.44 39.59,96.14 0,37.71 -13.2,69.75 -39.59,96.14 -26.39,26.4 -58.44,39.59 -96.14,39.59l-1869.08 0c-75.41,0 -139.5,-26.39 -192.28,-79.17 -52.79,-52.79 -79.18,-116.88 -79.18,-192.28 0,-58.44 16.03,-112.17 48.07,-161.18 32.05,-49.01 75.41,-80.12 130.08,-93.31l1611.76 -378.91c30.16,-7.54 45.24,-16.97 45.24,-28.28 0,-18.85 -33.93,-28.27 -101.79,-28.27l-1597.63 0zm2423.3 -135.73c0,-37.7 13.2,-69.75 39.59,-96.14 26.39,-26.39 58.44,-39.59 96.14,-39.59l2004.81 0c37.7,0 69.75,13.2 96.14,39.59 26.39,26.39 39.59,58.44 39.59,96.14 0,37.7 -13.2,69.75 -39.59,96.14 -26.39,26.39 -58.44,39.59 -96.14,39.59l-2004.81 0c-37.7,0 -69.75,-13.2 -96.14,-39.59 -26.39,-26.39 -39.59,-58.44 -39.59,-96.14zm344.98 1097.13c-41.47,0 -82.95,-8.95 -124.42,-26.86 -41.47,-17.91 -78.23,-42.89 -110.28,-74.93 -32.05,-32.05 -58.44,-70.7 -79.17,-115.94 -20.74,-45.24 -31.11,-96.14 -31.11,-152.69l0 -254.49c0,-50.9 14.61,-84.83 43.83,-101.8 29.22,-16.96 74.93,-25.45 137.14,-25.45l1897.36 0c37.71,0 69.75,13.2 96.14,39.59 26.39,26.39 39.59,58.44 39.59,96.14 0,37.7 -13.2,69.75 -39.59,96.14 -26.39,26.39 -58.43,39.59 -96.14,39.59l-1806.87 0 0 138.55c0,18.86 8.01,35.35 24.03,49.49 16.03,14.14 37.23,21.21 63.63,21.21l1781.42 0c37.7,0 69.75,13.19 96.14,39.58 26.39,26.39 39.59,58.44 39.59,96.14 0,37.71 -13.2,69.75 -39.59,96.14 -26.39,26.4 -58.44,39.59 -96.14,39.59l-1795.56 0zm2485.51 -135.73c0,37.71 -13.2,69.75 -39.59,96.14 -26.39,26.4 -58.44,39.59 -96.14,39.59 -37.7,0 -69.75,-13.19 -96.14,-39.59 -26.39,-26.39 -39.59,-58.43 -39.59,-96.14l0 -961.4c0,-37.7 13.2,-69.75 39.59,-96.14 26.39,-26.39 58.44,-39.59 96.14,-39.59 37.7,0 69.75,13.2 96.14,39.59 26.39,26.39 39.59,58.44 39.59,96.14l0 961.4zm2363.92 -1097.13c37.7,0 69.75,13.2 96.14,39.59 26.39,26.39 39.59,58.44 39.59,96.14 0,37.7 -13.2,69.75 -39.59,96.14 -26.39,26.39 -58.44,39.59 -96.14,39.59l-836.99 0 0 825.67c0,37.71 -13.19,69.75 -39.58,96.14 -26.4,26.4 -58.44,39.59 -96.14,39.59 -37.71,0 -69.75,-13.19 -96.14,-39.59 -26.4,-26.39 -39.59,-58.43 -39.59,-96.14l0 -825.67 -848.3 0c-33.93,-3.77 -63.15,-18.38 -87.66,-43.83 -24.5,-25.45 -36.76,-56.08 -36.76,-91.9 0,-37.7 13.2,-69.75 39.59,-96.14 26.39,-26.39 58.44,-39.59 96.14,-39.59l1945.43 0z"/>
  <g id="_3008469833648">
   <path class="fil0" d="M4948.82 2577.74c8.04,-11.57 19.48,-17.35 34.31,-17.35 12.36,0 22.87,4.5 31.52,13.5 8.66,8.99 12.98,19.92 12.98,32.77 0,12.22 -3.09,21.53 -9.27,27.96l-0.93 0.97 -224.37 314.28c-10.51,14.79 -24.42,26.84 -41.73,36.16 -17.3,9.31 -35.85,13.97 -55.63,13.97 -18.54,0 -36.16,-4.17 -52.85,-12.53 -16.68,-8.35 -30.28,-19.92 -40.79,-34.71l-225.31 -313.32c-3.08,-5.14 -6.03,-10.28 -8.81,-15.42 -2.78,-5.14 -4.17,-10.93 -4.17,-17.36 0,-12.85 4.33,-23.78 12.98,-32.77 8.66,-9 19.16,-13.5 31.53,-13.5 15.45,0 27.2,6.1 35.23,18.32l216.03 299.82c4.33,5.14 9.73,10.77 16.23,16.87 6.49,6.11 13.13,9.16 19.93,9.16 6.8,0 13.45,-3.05 19.94,-9.16 6.49,-6.1 11.59,-11.73 15.3,-16.87l217.88 -300.79zm713.92 310.43c21.02,0 38.33,-4.01 51.93,-12.05 13.6,-8.03 24.26,-17.83 31.99,-29.4 7.72,-11.57 12.98,-24.27 15.76,-38.08 2.78,-13.82 4.17,-26.52 4.17,-38.08 0,-11.57 -1.39,-24.27 -4.17,-38.09 -2.78,-13.81 -8.04,-26.51 -15.76,-38.08 -7.73,-11.56 -18.39,-21.37 -31.99,-29.4 -13.6,-8.03 -30.91,-12.05 -51.93,-12.05l-374.57 0c-21.64,0 -39.1,4.02 -52.39,12.05 -13.29,8.03 -23.8,17.84 -31.52,29.4 -7.73,11.57 -12.99,24.27 -15.77,38.08 -2.78,13.82 -4.17,26.52 -4.17,38.09 0,11.56 1.39,24.26 4.17,38.08 2.78,13.81 8.04,26.51 15.77,38.08 7.72,11.57 18.23,21.37 31.52,29.4 13.29,8.04 30.75,12.05 52.39,12.05l374.57 0zm190.08 -117.61c0,24.42 -3.86,49 -11.59,73.75 -7.73,24.74 -19.01,47.24 -33.84,67.48 -14.84,20.25 -32.77,36.8 -53.78,49.65 -21.01,12.86 -44.82,19.28 -71.39,19.28l-422.8 0c-25.34,0 -47.9,-6.42 -67.68,-19.28 -19.78,-12.85 -36.63,-29.4 -50.53,-49.65 -13.91,-20.24 -24.58,-42.9 -31.99,-67.97 -7.42,-25.06 -11.13,-49.48 -11.13,-73.26 0,-23.78 3.87,-48.21 11.59,-73.27 7.73,-25.07 19.01,-47.73 33.84,-67.97 14.84,-20.25 32.77,-36.8 53.78,-49.65 21.02,-12.85 44.82,-19.28 71.39,-19.28l422.8 0c24.73,0 47.14,6.43 67.22,19.28 20.09,12.85 37.09,29.4 51,49.65 13.9,20.24 24.57,42.9 31.98,67.97 7.42,25.06 11.13,49.49 11.13,73.27zm219.74 210.16c-17.3,0 -33.69,-3.37 -49.14,-10.12 -15.45,-6.75 -28.9,-15.91 -40.33,-27.48 -11.44,-11.56 -20.55,-25.06 -27.35,-40.49 -6.8,-15.42 -10.21,-32.13 -10.21,-50.13l0 -245.84c0,-12.85 4.33,-23.78 12.99,-32.77 8.65,-9 19.15,-13.5 31.52,-13.5 11.74,0 22.1,4.5 31.07,13.5 8.95,8.99 13.43,19.92 13.43,32.77l0 245.84c0,9.64 3.56,18 10.67,25.07 7.1,7.07 15.3,10.6 24.57,10.6l556.3 0c12.37,0 22.87,4.5 31.53,13.5 8.66,9 12.98,19.92 12.98,32.78 0,12.85 -4.32,23.78 -12.98,32.78 -8.66,8.99 -19.16,13.49 -31.53,13.49l-553.52 0zm779.75 -210.16c0,11.56 1.4,24.26 4.18,38.08 2.78,13.81 8.04,26.51 15.76,38.08 7.73,11.57 18.23,21.37 31.53,29.4 13.29,8.04 30.75,12.05 52.38,12.05l369.02 0c21.01,0 38.32,-4.01 51.92,-12.05 13.6,-8.03 24.26,-17.83 31.99,-29.4 7.72,-11.57 12.98,-24.27 15.76,-38.08 2.78,-13.82 4.18,-26.52 4.18,-38.08l0 -162.93c0,-12.86 4.31,-23.78 12.97,-32.78 8.66,-9 19.17,-13.5 31.53,-13.5 12.36,0 22.87,4.5 31.52,13.5 8.66,9 12.99,19.92 12.99,32.78l0 162.93c0,24.42 -3.87,49 -11.59,73.75 -7.74,24.74 -19.02,47.24 -33.85,67.48 -14.84,20.25 -32.76,36.8 -53.78,49.65 -21.01,12.86 -44.81,19.28 -71.39,19.28l-422.79 0c-25.35,0 -47.91,-6.42 -67.69,-19.28 -19.77,-12.85 -36.62,-29.4 -50.53,-49.65 -13.91,-20.24 -24.57,-42.9 -31.99,-67.97 -7.41,-25.06 -11.13,-49.48 -11.13,-73.26l0 -162.93c0,-12.86 4.33,-23.78 12.99,-32.78 8.65,-9 19.16,-13.5 31.52,-13.5 12.36,0 22.87,4.5 31.53,13.5 8.66,9 12.97,19.92 12.97,32.78l0 162.93zm1540.98 163.89c0,12.85 -4.33,23.78 -12.98,32.78 -8.66,8.99 -19.16,13.49 -31.53,13.49 -12.36,0 -22.87,-4.5 -31.52,-13.49 -8.65,-9 -12.98,-19.93 -12.98,-32.78l0 -210.17c0,-26.35 -1.55,-39.53 -4.63,-39.53 -2.48,0 -11.13,8.68 -25.97,26.03l-203.98 241.02c-8.04,9.64 -17.92,16.87 -29.66,21.69 -11.75,4.82 -24.42,7.23 -38.02,7.23 -13.6,0 -26.27,-2.41 -38.02,-7.23 -11.74,-4.82 -21.63,-12.05 -29.67,-21.69l-203.97 -241.02c-14.22,-17.35 -22.87,-26.03 -25.97,-26.03 -3.09,0 -4.64,13.18 -4.64,39.53l0 210.17c0,12.85 -4.31,23.78 -12.97,32.78 -8.65,8.99 -19.17,13.49 -31.52,13.49 -12.37,0 -22.87,-4.5 -31.53,-13.49 -8.66,-9 -12.98,-19.93 -12.98,-32.78l0 -281.51c0,-25.71 7.1,-47.56 21.33,-65.56 14.21,-17.99 33.68,-26.99 58.4,-26.99 14.84,0 28.13,3.85 39.88,11.57 11.74,7.71 22.56,17.03 32.45,27.96l213.25 252.58c3.09,3.22 6.95,6.59 11.59,10.12 4.64,3.54 9.42,5.31 14.37,5.31 4.94,0 9.73,-1.77 14.37,-5.31 4.63,-3.53 8.5,-6.9 11.59,-10.12l212.33 -252.58 0.92 0c8.66,-12.22 19.17,-21.86 31.53,-28.93 12.35,-7.07 25.95,-10.6 40.79,-10.6 24.73,0 44.19,9 58.41,26.99 14.22,18 21.33,39.85 21.33,65.56l0 281.51zm92.71 -327.79c0,-12.85 4.33,-23.78 12.98,-32.77 8.66,-9 19.16,-13.5 31.53,-13.5l657.36 0c12.37,0 22.87,4.5 31.53,13.5 8.66,8.99 12.98,19.92 12.98,32.77 0,12.86 -4.32,23.78 -12.98,32.78 -8.66,9 -19.16,13.5 -31.53,13.5l-657.36 0c-12.37,0 -22.87,-4.5 -31.53,-13.5 -8.65,-9 -12.98,-19.92 -12.98,-32.78zm113.12 374.06c-13.6,0 -27.2,-3.05 -40.8,-9.16 -13.6,-6.1 -25.65,-14.62 -36.16,-25.54 -10.5,-10.93 -19.16,-24.11 -25.95,-39.53 -6.8,-15.43 -10.21,-32.78 -10.21,-52.06l0 -86.77c0,-17.35 4.79,-28.92 14.38,-34.7 9.58,-5.79 24.56,-8.68 44.96,-8.68l622.14 0c12.36,0 22.88,4.5 31.52,13.5 8.66,9 12.99,19.92 12.99,32.78 0,12.85 -4.33,23.78 -12.99,32.77 -8.64,9 -19.16,13.5 -31.52,13.5l-592.47 0 0 47.24c0,6.43 2.63,12.05 7.89,16.87 5.25,4.82 12.2,7.23 20.86,7.23l584.11 0c12.37,0 22.87,4.5 31.53,13.5 8.66,9 12.98,19.92 12.98,32.78 0,12.85 -4.32,23.78 -12.98,32.78 -8.66,8.99 -19.16,13.49 -31.53,13.49l-588.75 0zm1408.38 -420.33c12.36,0 22.87,4.5 31.53,13.5 8.65,8.99 12.97,19.92 12.97,32.77 0,12.86 -4.32,23.78 -12.97,32.78 -8.66,9 -19.17,13.5 -31.53,13.5l-274.45 0 0 281.51c0,12.85 -4.32,23.78 -12.97,32.78 -8.66,8.99 -19.17,13.49 -31.53,13.49 -12.36,0 -22.87,-4.5 -31.52,-13.49 -8.66,-9 -12.99,-19.93 -12.99,-32.78l0 -281.51 -278.15 0c-11.13,-1.29 -20.7,-6.27 -28.74,-14.94 -8.04,-8.68 -12.06,-19.12 -12.06,-31.34 0,-12.85 4.33,-23.78 12.99,-32.77 8.65,-9 19.16,-13.5 31.52,-13.5l637.9 0zm733.4 256.44c16.69,10.93 33.69,22.66 50.99,35.19 17.31,12.53 34.93,26.19 52.86,40.97 6.8,5.14 12.67,11.09 17.61,17.84 4.95,6.75 7.42,14.62 7.42,23.62 0,12.85 -4.32,23.78 -12.98,32.78 -8.66,8.99 -19.16,13.49 -31.53,13.49 -4.94,0 -10.19,-1.28 -15.76,-3.85 -5.56,-2.57 -10.82,-5.79 -15.76,-9.64 -25.34,-19.29 -51.3,-38.08 -77.88,-56.4 -26.58,-18.32 -54.24,-34.39 -82.98,-48.21 -28.75,-13.81 -58.57,-24.9 -89.48,-33.26 -30.9,-8.35 -63.04,-12.53 -96.42,-12.53l-184.51 0c-8.03,1.29 -14.83,5.14 -20.4,11.57 -5.56,6.43 -8.35,14.46 -8.35,24.1l0 81.95c0,12.85 -4.48,23.78 -13.43,32.78 -8.97,8.99 -19.33,13.49 -31.07,13.49 -12.37,0 -22.87,-4.5 -31.52,-13.49 -8.66,-9 -12.99,-19.93 -12.99,-32.78l0 -92.55c0,-16.07 2.95,-31.34 8.81,-45.8 5.88,-14.46 13.76,-26.99 23.65,-37.6 9.89,-10.6 21.63,-18.96 35.23,-25.06 13.6,-6.11 28.44,-9.16 44.51,-9.16l491.4 0c9.27,0 17.46,-3.37 24.57,-10.12 7.11,-6.75 10.66,-15.27 10.66,-25.55 0,-9.64 -3.55,-18 -10.66,-25.07 -7.11,-7.07 -15.3,-10.6 -24.57,-10.6l-559.09 0c-12.37,0 -22.87,-4.5 -31.52,-13.5 -8.66,-9 -12.99,-19.92 -12.99,-32.78 0,-12.85 4.33,-23.78 12.99,-32.77 8.65,-9 19.15,-13.5 31.52,-13.5l555.38 0c17.31,0 33.53,3.37 48.68,10.12 15.14,6.75 28.44,15.91 39.87,27.48 11.44,11.57 20.4,25.06 26.88,40.49 6.49,15.42 9.74,32.13 9.74,50.13 0,18 -3.25,34.71 -9.74,50.13 -6.48,15.43 -15.44,28.92 -26.88,40.49 -11.43,11.57 -24.73,20.73 -39.87,27.48 -15.15,6.75 -31.37,10.12 -48.68,10.12l-3.71 0zm310.6 117.62c0,12.85 -4.31,23.78 -12.97,32.78 -8.66,8.99 -19.17,13.49 -31.53,13.49 -12.36,0 -22.87,-4.5 -31.52,-13.49 -8.66,-9 -12.99,-19.93 -12.99,-32.78l0 -327.79c0,-12.85 4.33,-23.78 12.99,-32.77 8.65,-9 19.16,-13.5 31.52,-13.5 12.36,0 22.87,4.5 31.53,13.5 8.66,8.99 12.97,19.92 12.97,32.77l0 327.79zm92.72 -163.89c0,-23.78 3.87,-48.21 11.59,-73.27 7.74,-25.07 19.02,-47.73 33.85,-67.97 14.84,-20.25 32.76,-36.8 53.78,-49.65 21.01,-12.85 44.81,-19.28 71.39,-19.28l540.55 0c12.36,0 22.87,4.5 31.51,13.5 8.66,8.99 12.99,19.92 12.99,32.77 0,12.86 -4.33,23.78 -12.99,32.78 -8.64,9 -19.15,13.5 -31.51,13.5l-521.08 0c-21.64,0 -39.09,4.02 -52.38,12.05 -13.3,8.03 -23.81,17.84 -31.53,29.4 -7.72,11.57 -12.98,24.27 -15.76,38.08 -2.78,13.82 -4.18,26.52 -4.18,38.09 0,11.56 1.4,24.26 4.18,38.08 2.78,13.81 8.04,26.51 15.76,38.08 7.72,11.57 18.23,21.37 31.53,29.4 13.29,8.04 30.74,12.05 52.38,12.05l521.08 0c12.36,0 22.87,4.5 31.51,13.5 8.66,9 12.99,19.92 12.99,32.78 0,12.85 -4.33,23.78 -12.99,32.78 -8.64,8.99 -19.15,13.49 -31.51,13.49l-549.82 0c-25.35,0 -47.91,-6.42 -67.69,-19.28 -19.78,-12.85 -36.62,-29.4 -50.53,-49.65 -13.91,-20.24 -24.57,-42.74 -31.99,-67.48 -7.41,-24.75 -11.13,-49.33 -11.13,-73.75zm1265.6 -163.9c0,-12.85 4.33,-23.78 12.98,-32.77 8.66,-9 19.16,-13.5 31.53,-13.5 12.36,0 22.87,4.5 31.52,13.5 8.66,8.99 12.98,19.92 12.98,32.77l0 163.9c0,11.56 1.39,24.26 4.17,38.08 2.78,13.81 8.04,26.51 15.76,38.08 7.74,11.57 18.24,21.37 31.53,29.4 13.29,8.04 30.76,12.05 52.38,12.05l215.11 0c-9.89,-17.99 -17.31,-37.11 -22.25,-57.36 -4.95,-20.25 -7.42,-40.33 -7.42,-60.25l0 -163.9c0,-12.85 4.32,-23.78 12.98,-32.77 8.66,-9 19.17,-13.5 31.53,-13.5 12.35,0 22.87,4.5 31.52,13.5 8.66,8.99 12.97,19.92 12.97,32.77l0 163.9c0,11.56 1.4,24.1 4.18,37.59 2.79,13.5 7.73,26.19 14.84,38.09 7.11,11.89 16.99,21.85 29.67,29.88 12.66,8.04 28.9,12.05 48.67,12.05l88.09 0c21.01,0 38.32,-4.01 51.92,-12.05 13.6,-8.03 24.26,-17.83 31.99,-29.4 7.72,-11.57 12.97,-24.27 15.76,-38.08 2.78,-13.82 4.16,-26.52 4.16,-38.08l0 -163.9c0,-12.85 4.33,-23.78 12.99,-32.77 8.65,-9 19.17,-13.5 31.52,-13.5 12.36,0 22.87,4.5 31.53,13.5 8.66,8.99 12.98,19.92 12.98,32.77l0 163.9c0,24.42 -3.86,49 -11.6,73.75 -7.72,24.74 -19,47.24 -33.83,67.48 -14.84,20.25 -32.77,36.8 -53.78,49.65 -21.01,12.86 -44.82,19.28 -71.39,19.28l-513.66 0c-25.34,0 -47.91,-6.42 -67.69,-19.28 -19.77,-12.85 -36.62,-29.4 -50.53,-49.65 -13.9,-20.24 -24.57,-42.74 -31.98,-67.48 -7.42,-24.75 -11.13,-49.33 -11.13,-73.75l0 -163.9zm1534.48 210.17c16.69,10.93 33.69,22.66 50.99,35.19 17.32,12.53 34.93,26.19 52.86,40.97 6.8,5.14 12.67,11.09 17.61,17.84 4.95,6.75 7.42,14.62 7.42,23.62 0,12.85 -4.32,23.78 -12.98,32.78 -8.65,8.99 -19.16,13.49 -31.52,13.49 -4.95,0 -10.2,-1.28 -15.77,-3.85 -5.56,-2.57 -10.82,-5.79 -15.76,-9.64 -25.34,-19.29 -51.3,-38.08 -77.88,-56.4 -26.58,-18.32 -54.24,-34.39 -82.98,-48.21 -28.75,-13.81 -58.57,-24.9 -89.48,-33.26 -30.9,-8.35 -63.04,-12.53 -96.42,-12.53l-184.51 0c-8.03,1.29 -14.83,5.14 -20.4,11.57 -5.56,6.43 -8.35,14.46 -8.35,24.1l0 81.95c0,12.85 -4.48,23.78 -13.43,32.78 -8.97,8.99 -19.32,13.49 -31.07,13.49 -12.36,0 -22.87,-4.5 -31.52,-13.49 -8.66,-9 -12.99,-19.93 -12.99,-32.78l0 -92.55c0,-16.07 2.95,-31.34 8.81,-45.8 5.88,-14.46 13.76,-26.99 23.65,-37.6 9.89,-10.6 21.63,-18.96 35.23,-25.06 13.6,-6.11 28.44,-9.16 44.51,-9.16l491.4 0c9.27,0 17.46,-3.37 24.57,-10.12 7.11,-6.75 10.67,-15.27 10.67,-25.55 0,-9.64 -3.56,-18 -10.67,-25.07 -7.11,-7.07 -15.3,-10.6 -24.57,-10.6l-559.09 0c-12.36,0 -22.87,-4.5 -31.52,-13.5 -8.66,-9 -12.99,-19.92 -12.99,-32.78 0,-12.85 4.33,-23.78 12.99,-32.77 8.65,-9 19.16,-13.5 31.52,-13.5l555.39 0c17.3,0 33.52,3.37 48.67,10.12 15.15,6.75 28.44,15.91 39.87,27.48 11.44,11.57 20.4,25.06 26.88,40.49 6.49,15.42 9.74,32.13 9.74,50.13 0,18 -3.25,34.71 -9.74,50.13 -6.48,15.43 -15.44,28.92 -26.88,40.49 -11.43,11.57 -24.72,20.73 -39.87,27.48 -15.15,6.75 -31.37,10.12 -48.67,10.12l-3.72 0zm310.6 117.62c0,12.85 -4.31,23.78 -12.97,32.78 -8.65,8.99 -19.17,13.49 -31.52,13.49 -12.37,0 -22.87,-4.5 -31.53,-13.49 -8.66,-9 -12.98,-19.93 -12.98,-32.78l0 -327.79c0,-12.85 4.32,-23.78 12.98,-32.77 8.66,-9 19.16,-13.5 31.53,-13.5 12.35,0 22.87,4.5 31.52,13.5 8.66,8.99 12.97,19.92 12.97,32.77l0 327.79zm216.04 -117.62c-17.3,0 -33.37,-3.37 -48.21,-10.12 -14.83,-6.75 -27.82,-15.91 -38.94,-27.48 -11.13,-11.57 -19.94,-25.06 -26.42,-40.49 -6.49,-15.42 -9.74,-32.13 -9.74,-50.13 0,-18 3.25,-34.71 9.74,-50.13 6.48,-15.43 15.29,-28.92 26.42,-40.49 11.12,-11.57 24.11,-20.73 38.94,-27.48 14.84,-6.75 30.91,-10.12 48.21,-10.12l562.81 0c12.35,0 22.87,4.5 31.51,13.5 8.66,8.99 12.98,19.92 12.98,32.77 0,12.86 -4.32,23.78 -12.98,32.78 -8.64,9 -19.16,13.5 -31.51,13.5l-564.66 0c-9.27,0 -17.46,3.37 -24.57,10.12 -7.11,6.75 -10.67,15.27 -10.67,25.55 0,9.64 3.56,18 10.67,25.07 7.11,7.07 15.3,10.6 24.57,10.6l512.73 0c17.3,0 33.53,3.37 48.67,10.12 15.15,6.75 28.29,15.91 39.41,27.48 11.12,11.57 19.93,25.23 26.43,40.97 6.49,15.75 9.73,32.62 9.73,50.62 0,17.99 -3.24,34.7 -9.73,50.13 -6.5,15.42 -15.31,28.92 -26.43,40.49 -11.12,11.57 -24.26,20.57 -39.41,26.99 -15.14,6.43 -31.37,9.64 -48.67,9.64l-561.87 0c-12.36,0 -22.87,-4.5 -31.53,-13.49 -8.65,-9 -12.97,-19.93 -12.97,-32.78 0,-12.86 4.32,-23.78 12.97,-32.78 8.66,-9 19.17,-13.5 31.53,-13.5l565.57 0c9.28,0 17.32,-3.37 24.11,-10.12 6.8,-6.75 10.2,-14.94 10.2,-24.58 0,-10.29 -3.4,-18.96 -10.2,-26.03 -6.79,-7.07 -14.83,-10.61 -24.11,-10.61l-514.58 0zm1410.25 -256.44c12.36,0 22.87,4.5 31.52,13.5 8.66,8.99 12.98,19.92 12.98,32.77 0,12.86 -4.32,23.78 -12.98,32.78 -8.65,9 -19.16,13.5 -31.52,13.5l-274.45 0 0 281.51c0,12.85 -4.32,23.78 -12.98,32.78 -8.65,8.99 -19.16,13.49 -31.52,13.49 -12.37,0 -22.87,-4.5 -31.53,-13.49 -8.65,-9 -12.98,-19.93 -12.98,-32.78l0 -281.51 -278.15 0c-11.13,-1.29 -20.71,-6.27 -28.74,-14.94 -8.04,-8.68 -12.06,-19.12 -12.06,-31.34 0,-12.85 4.33,-23.78 12.98,-32.77 8.66,-9 19.16,-13.5 31.53,-13.5l637.9 0zm554.45 46.27c0,-12.85 4.32,-23.78 12.98,-32.77 8.66,-9 19.16,-13.5 31.53,-13.5 12.35,0 22.87,4.5 31.52,13.5 8.66,8.99 12.97,19.92 12.97,32.77l0 163.9c0,11.56 1.4,24.26 4.18,38.08 2.78,13.81 8.04,26.51 15.76,38.08 7.73,11.57 18.24,21.37 31.53,29.4 13.29,8.04 30.75,12.05 52.38,12.05l215.1 0c-9.88,-17.99 -17.3,-37.11 -22.24,-57.36 -4.95,-20.25 -7.43,-40.33 -7.43,-60.25l0 -163.9c0,-12.85 4.33,-23.78 12.99,-32.77 8.65,-9 19.17,-13.5 31.52,-13.5 12.36,0 22.87,4.5 31.53,13.5 8.65,8.99 12.97,19.92 12.97,32.77l0 163.9c0,11.56 1.4,24.1 4.18,37.59 2.79,13.5 7.73,26.19 14.84,38.09 7.1,11.89 16.99,21.85 29.67,29.88 12.66,8.04 28.9,12.05 48.67,12.05l88.08 0c21.02,0 38.33,-4.01 51.93,-12.05 13.6,-8.03 24.25,-17.83 31.99,-29.4 7.72,-11.57 12.97,-24.27 15.76,-38.08 2.78,-13.82 4.16,-26.52 4.16,-38.08l0 -163.9c0,-12.85 4.33,-23.78 12.99,-32.77 8.65,-9 19.16,-13.5 31.52,-13.5 12.36,0 22.87,4.5 31.53,13.5 8.65,8.99 12.98,19.92 12.98,32.77l0 163.9c0,24.42 -3.86,49 -11.6,73.75 -7.72,24.74 -19,47.24 -33.83,67.48 -14.84,20.25 -32.77,36.8 -53.78,49.65 -21.02,12.86 -44.82,19.28 -71.39,19.28l-513.66 0c-25.34,0 -47.91,-6.42 -67.69,-19.28 -19.77,-12.85 -36.62,-29.4 -50.53,-49.65 -13.91,-20.24 -24.57,-42.74 -31.99,-67.48 -7.41,-24.75 -11.12,-49.33 -11.12,-73.75l0 -163.9zm994.86 356.71c-8.65,11.57 -20.09,17.35 -34.3,17.35 -12.37,0 -22.87,-4.5 -31.53,-13.49 -8.65,-9 -12.98,-19.93 -12.98,-32.78 0,-12.21 3.09,-21.53 9.27,-27.96l225.3 -315.25c10.52,-14.78 24.42,-26.83 41.73,-36.15 17.31,-9.32 35.85,-13.98 55.63,-13.98 18.54,0 36.16,4.17 52.85,12.53 16.69,8.36 30.29,19.92 40.79,34.71l225.31 313.32c3.09,5.14 6.03,10.28 8.81,15.42 2.78,5.15 4.17,10.93 4.17,17.36 0,12.85 -4.32,23.78 -12.98,32.78 -8.66,8.99 -19.16,13.49 -31.53,13.49 -15.45,0 -27.19,-6.1 -35.22,-18.31l-216.04 -299.83c-4.33,-5.14 -9.73,-10.77 -16.22,-16.87 -6.49,-6.11 -13.14,-9.16 -19.94,-9.16 -6.8,0 -13.44,3.05 -19.94,9.16 -6.49,6.1 -11.58,11.73 -15.29,16.87l-217.89 300.79zm1245.21 -402.98c12.36,0 22.87,4.5 31.52,13.5 8.66,8.99 12.98,19.92 12.98,32.77 0,12.86 -4.32,23.78 -12.98,32.78 -8.65,9 -19.16,13.5 -31.52,13.5l-274.45 0 0 281.51c0,12.85 -4.32,23.78 -12.98,32.78 -8.65,8.99 -19.16,13.49 -31.52,13.49 -12.37,0 -22.87,-4.5 -31.53,-13.49 -8.65,-9 -12.98,-19.93 -12.98,-32.78l0 -281.51 -278.15 0c-11.13,-1.29 -20.71,-6.27 -28.74,-14.94 -8.04,-8.68 -12.06,-19.12 -12.06,-31.34 0,-12.85 4.33,-23.78 12.98,-32.77 8.66,-9 19.16,-13.5 31.53,-13.5l637.9 0zm114.96 210.17c0,-23.78 3.87,-48.21 11.59,-73.27 7.73,-25.07 19.02,-47.73 33.84,-67.97 14.84,-20.25 32.77,-36.8 53.79,-49.65 21.01,-12.85 44.81,-19.28 71.38,-19.28l540.56 0c12.36,0 22.87,4.5 31.51,13.5 8.66,8.99 12.99,19.92 12.99,32.77 0,12.86 -4.33,23.78 -12.99,32.78 -8.64,9 -19.15,13.5 -31.51,13.5l-521.08 0c-21.64,0 -39.09,4.02 -52.39,12.05 -13.29,8.03 -23.8,17.84 -31.52,29.4 -7.72,11.57 -12.98,24.27 -15.76,38.08 -2.78,13.82 -4.18,26.52 -4.18,38.09 0,11.56 1.4,24.26 4.18,38.08 2.78,13.81 8.04,26.51 15.76,38.08 7.72,11.57 18.23,21.37 31.52,29.4 13.3,8.04 30.75,12.05 52.39,12.05l521.08 0c12.36,0 22.87,4.5 31.51,13.5 8.66,9 12.99,19.92 12.99,32.78 0,12.85 -4.33,23.78 -12.99,32.78 -8.64,8.99 -19.15,13.49 -31.51,13.49l-549.83 0c-25.34,0 -47.9,-6.42 -67.68,-19.28 -19.78,-12.85 -36.63,-29.4 -50.53,-49.65 -13.91,-20.24 -24.58,-42.74 -31.99,-67.48 -7.42,-24.75 -11.13,-49.33 -11.13,-73.75zm1574.35 163.89c0,12.85 -4.33,23.78 -12.98,32.78 -8.65,8.99 -19.16,13.49 -31.53,13.49 -12.36,0 -22.87,-4.5 -31.51,-13.49 -8.66,-9 -12.99,-19.93 -12.99,-32.78l0 -117.62 -547.96 0 0 117.62c0,12.85 -4.32,23.78 -12.98,32.78 -8.65,8.99 -19.17,13.49 -31.52,13.49 -12.37,0 -22.87,-4.5 -31.53,-13.49 -8.65,-9 -12.98,-19.93 -12.98,-32.78l0 -327.79c0,-12.85 4.33,-23.78 12.98,-32.77 8.66,-9 19.16,-13.5 31.53,-13.5 12.35,0 22.87,4.5 31.52,13.5 8.66,8.99 12.98,19.92 12.98,32.77l0 117.62 547.96 0 0 -117.62c0,-12.85 4.33,-23.78 12.99,-32.77 8.64,-9 19.15,-13.5 31.51,-13.5 12.37,0 22.88,4.5 31.53,13.5 8.65,8.99 12.98,19.92 12.98,32.77l0 327.79zm92.71 -327.79c0,-12.85 4.33,-23.78 12.99,-32.77 8.65,-9 19.15,-13.5 31.52,-13.5l657.37 0c12.36,0 22.87,4.5 31.52,13.5 8.66,8.99 12.99,19.92 12.99,32.77 0,12.86 -4.33,23.78 -12.99,32.78 -8.65,9 -19.16,13.5 -31.52,13.5l-657.37 0c-12.37,0 -22.87,-4.5 -31.52,-13.5 -8.66,-9 -12.99,-19.92 -12.99,-32.78zm113.12 374.06c-13.6,0 -27.2,-3.05 -40.79,-9.16 -13.6,-6.1 -25.65,-14.62 -36.17,-25.54 -10.5,-10.93 -19.15,-24.11 -25.95,-39.53 -6.8,-15.43 -10.21,-32.78 -10.21,-52.06l0 -86.77c0,-17.35 4.79,-28.92 14.38,-34.7 9.58,-5.79 24.56,-8.68 44.96,-8.68l622.14 0c12.37,0 22.88,4.5 31.52,13.5 8.66,9 12.99,19.92 12.99,32.78 0,12.85 -4.33,23.78 -12.99,32.77 -8.64,9 -19.15,13.5 -31.52,13.5l-592.47 0 0 47.24c0,6.43 2.64,12.05 7.89,16.87 5.25,4.82 12.2,7.23 20.86,7.23l584.12 0c12.36,0 22.87,4.5 31.52,13.5 8.66,9 12.99,19.92 12.99,32.78 0,12.85 -4.33,23.78 -12.99,32.78 -8.65,8.99 -19.16,13.49 -31.52,13.49l-588.76 0z"/>
   <path class="fil0" d="M21420.14 2816.83c-17.3,0 -33.37,-3.37 -48.21,-10.12 -14.83,-6.75 -27.82,-15.91 -38.94,-27.48 -11.13,-11.57 -19.94,-25.06 -26.42,-40.49 -6.49,-15.42 -9.74,-32.13 -9.74,-50.13 0,-18 3.25,-34.71 9.74,-50.13 6.48,-15.43 15.29,-28.92 26.42,-40.49 11.12,-11.57 24.11,-20.73 38.94,-27.48 14.84,-6.75 30.91,-10.12 48.21,-10.12l562.81 0c12.35,0 22.87,4.5 31.51,13.5 8.66,8.99 12.99,19.92 12.99,32.77 0,12.86 -4.33,23.78 -12.99,32.78 -8.64,9 -19.16,13.5 -31.51,13.5l-564.66 0c-9.27,0 -17.46,3.37 -24.57,10.12 -7.11,6.75 -10.66,15.27 -10.66,25.55 0,9.64 3.55,18 10.66,25.07 7.11,7.07 15.3,10.6 24.57,10.6l512.73 0c17.3,0 33.53,3.37 48.68,10.12 15.14,6.75 28.28,15.91 39.4,27.48 11.13,11.57 19.93,25.23 26.43,40.97 6.49,15.75 9.73,32.62 9.73,50.62 0,17.99 -3.24,34.7 -9.73,50.13 -6.5,15.42 -15.3,28.92 -26.43,40.49 -11.12,11.57 -24.26,20.57 -39.4,26.99 -15.15,6.43 -31.38,9.64 -48.68,9.64l-561.87 0c-12.36,0 -22.87,-4.5 -31.53,-13.49 -8.65,-9 -12.97,-19.93 -12.97,-32.78 0,-12.86 4.32,-23.78 12.97,-32.78 8.66,-9 19.17,-13.5 31.53,-13.5l565.58 0c9.27,0 17.31,-3.37 24.11,-10.12 6.8,-6.75 10.19,-14.94 10.19,-24.58 0,-10.29 -3.39,-18.96 -10.19,-26.03 -6.8,-7.07 -14.84,-10.61 -24.11,-10.61l-514.59 0z"/>
  </g>
 </g>
</svg>
